Patient4_TMGait_0pt5_01_right_29_EMG.mot
version=1
nRows=13
nColumns=33
inDegrees=no
endheader
time	1LAddLong	2LGlutMax	3LGlutMed	4LIliopsoas	5LSemiMemb	6LBicFemLong	7LRecFem	8LVastMed	9LVastLat	10LGasMed	11LTibAnt	12lTibPost	13LPeroneusLong	14LSol	15LExtDigLong	16LFlexDigLong	17RAddLong	18RGlutMax	19RGlutMed	20RIliopsoas	21RSemiMemb	22RBicFemLong	23RRecFem	24RVastMed	25RVastLat	26RGasMed	27RTibAnt	28RTibPost	29RPeroneusLong	30RSol	31RExtDigLong	32RFlexDigLong
39.49	-0.010834	0.039673	0.011749	0.001526	0.07309	-0.13473	-0.085449	0.016937	0.011139	-0.018005	0.014801	0.006104	0.11887	-0.016937	0.13977	-0.006866	-0.00412	-0.13947	-0.40161	0.025482	-0.012665	-0.000305	-0.1593	-0.16449	0.015869	0.001831	-0.086517	-0.005646	-0.19058	0.06485	0.000916	-0.001526
39.491	-0.011597	0.049744	-0.018921	0.007324	0.019379	-0.11459	-0.030823	0.012817	0.014648	-0.021667	0.066681	-0.002594	0.25787	-0.011292	0.026245	-0.016937	-0.008698	-0.13443	-0.24567	-0.006561	-0.009155	0.004425	-0.09079	-0.095673	0.011292	-0.003052	0.22812	-0.004425	-0.04303	0.027313	0.001526	-0.014343
39.492	0.006561	0.040131	-0.018311	-0.015411	-0.001678	-0.046997	0.014954	-0.005493	0.036774	-0.038757	0.057678	-0.002289	0.45609	-0.041809	-0.086365	0.00412	0.011902	-0.091858	-0.02243	0.003204	-0.024872	0.018768	0.023041	-0.11795	0.009766	-0.02243	0.40405	-0.005341	0.072327	0.018005	-0.002441	-0.015564
39.493	0.018616	0.002441	0.053864	-0.018005	0.016937	0.13336	0.007629	-0.005646	0.12253	-0.027313	0.060425	0.003357	-0.07782	0.023193	-0.046997	-0.00946	0.040436	-0.11902	-0.14481	-0.046082	-0.040588	0.00351	0.029907	-0.10422	0.026398	-0.051422	0.53818	-0.00473	0.094757	-0.005188	0.005035	-0.015717
39.494	0.027771	0.018463	0.064392	-0.014038	0.019836	0.22095	0.017548	0.005493	0.060272	-0.044403	0.070343	0.002594	-0.65948	0.082092	-0.040894	-0.007172	0.092773	-0.068817	-0.076752	-0.058289	-0.046997	0.005493	0.03479	-0.12344	0.008545	-0.070801	0.62546	-0.004578	0.00061	-0.078278	0.001678	-0.019989
39.495	0.03891	0.059204	0.010223	-0.001678	0.029907	0.22308	0.036316	-0.005188	0.037079	-0.13794	0.053864	0.00061	-0.79636	0.1152	-0.041656	-0.00946	0.12039	-0.051727	0.34241	-0.06897	-0.016785	-0.005493	0.021057	-0.087585	0.006561	-0.062714	0.60135	-0.009918	-0.027313	-0.10696	0.000153	-0.009308
39.496	0.026398	0.053406	-0.055542	0.000305	0.031433	0.31464	0.077057	-0.009766	0.01358	-0.10971	-0.028534	0.003357	-0.35217	0.10254	-0.15839	0.008087	0.13779	-0.030212	0.47348	-0.052643	0.025177	-0.003357	-0.10483	-0.040131	-0.003204	-0.021515	0.47501	-0.009613	-0.02655	-0.027466	-0.002136	-0.004578
39.497	0.025177	0.007019	-0.1004	-0.01709	0.059357	0.35767	0.074158	0.001068	-0.016937	-0.0177	0.005341	-0.00351	0.19073	0.092316	-0.16907	-0.006409	0.068665	-0.076904	-0.12497	-0.016174	-0.018463	-0.02182	-0.22079	-0.061493	0.024109	0.052795	0.089874	-0.008087	0.027771	-0.036926	0.002441	-0.002594
39.498	0.022583	-0.056152	-0.079346	-0.007019	0.064087	-0.021515	0.009613	-0.003967	-0.044861	0.089111	0.081482	0.000153	0.48248	0.12756	-0.098267	-0.014801	-0.034943	-0.11749	-0.24841	-0.016327	-0.052338	0.030975	-0.17319	-0.059204	0.015564	0.046997	-0.090027	-0.000458	0.050201	-0.075378	0.003052	-0.003357
39.499	0.019989	-0.078125	-0.025482	0.0177	0.063477	-0.24017	-0.025635	0.006409	-0.046234	0.12512	0.057831	-0.000916	0.36728	0.2243	0.064545	0.00351	-0.10712	-0.12894	-0.24948	0.0177	-0.090942	0.05127	-0.045013	-0.097198	0.023193	0.011749	-0.30319	0.005493	0.002899	-0.059204	0.001526	-0.001373
39.5	0.017853	-0.037842	-0.063324	0.013428	0.048676	0.16586	0.008698	0.008545	-0.035553	0.091095	0.036621	-0.005951	-0.021515	0.19287	0.11749	-0.002747	-0.1535	-0.079041	-0.26657	0.032196	-0.002594	0.018005	0.006256	-0.037689	0.007782	0.011902	-0.17563	0.000458	0.019073	-0.10971	0.00061	-0.002136
39.501	0.004578	-0.07019	-0.16525	-0.003357	0.019073	0.12665	0.059814	0.006256	-0.038605	0.055695	0.007324	-0.001068	-0.029297	0.016785	0.019226	0.000305	-0.15076	-0.084991	-0.1503	-0.011597	0.036774	0.039978	0.0354	-0.009766	0.024109	0.020905	0.010681	-0.001984	-0.052032	-0.18341	-0.007782	0.001831
39.502	0.003204	-0.086975	-0.058136	-0.016479	0.008545	-0.11444	0.10803	0.024872	-0.076447	0.2211	-0.006866	-0.004272	-0.20248	-0.083313	0.075073	0.002747	-0.11459	-0.097046	-0.12116	0.035095	0.001984	0.045929	0.065308	0.022278	0.023346	0.009613	-0.46967	-0.005035	0.027924	-0.22644	0.001984	0.00061
